<svg xmlns="http://www.w3.org/2000/svg" width="1024" height="1024" viewBox="0 0 1024 1024">
  <defs>
    <linearGradient id="bg" x1="0" y1="0" x2="0" y2="1">
      <stop offset="0" stop-color="#2c2a27"/>
      <stop offset="1" stop-color="#161513"/>
    </linearGradient>
    <linearGradient id="nib" x1="0" y1="0" x2="0" y2="1">
      <stop offset="0" stop-color="#8df0d5"/>
      <stop offset="1" stop-color="#3fd4ac"/>
    </linearGradient>
  </defs>
  <rect x="64" y="64" width="896" height="896" rx="200" fill="url(#bg)"/>
  <rect x="64" y="64" width="896" height="896" rx="200" fill="none" stroke="#ffffff" stroke-opacity="0.12" stroke-width="6"/>
  <g transform="translate(512 512) scale(7.6)">
    <path fill="url(#nib)" fill-rule="evenodd" d="M0,-42 C 22,-34 30,-10 25,12 C 21,28 12,37 0,44 C -12,37 -21,28 -25,12 C -30,-10 -22,-34 0,-42 Z M0,-1.5 a 5.5,5.5 0 1,0 0,11 a 5.5,5.5 0 1,0 0,-11 Z M-1.3,12.5 L1.3,12.5 L1.3,36 L0,39 L-1.3,36 Z"/>
  </g>
</svg>
